<?xml version="1.0" standalone="no"?><!DOCTYPE svg PUBLIC "-//W3C//DTD SVG 1.1//EN" "http://www.w3.org/Graphics/SVG/1.1/DTD/svg11.dtd"><svg t="1635600294091" class="icon" viewBox="0 0 1024 1024" version="1.1" xmlns="http://www.w3.org/2000/svg" p-id="1363" xmlns:xlink="http://www.w3.org/1999/xlink" width="128" height="128"><defs><style type="text/css"></style></defs><path d="M519.0472332 481.01253929c25.71193585 0 46.544365 20.83620055 46.54436499 46.55190873 0.0075428 25.70910707-20.83337177 46.54907902-46.54436499 46.54907901s-46.55190781-20.84091549-46.55190779-46.54907901c0.00471495-25.71664987 20.84091549-46.55190781 46.55190779-46.55190873z" fill="#9400D3" p-id="1364"></path><path d="M519.0472332 418.9584148c59.9957741 0 108.63997673 48.60554418 108.63997674 108.60508968 0 59.99388795-48.64420264 108.64092028-108.63997674 108.64092027s-108.60414705-48.64703141-108.60414613-108.64092028c0.00282878-59.99954551 48.60837296-108.60508967 108.60414613-108.60508967z m117.89453937-132.79424154c-35.57844011-17.40498786-75.61302449-27.19606044-117.89453937-27.19606045a271.89459892 271.89459892 0 0 0-36.30164403 2.44022466l-17.52473648-89.48119492c20.41943922-10.17106067 34.43941656-31.23732861 34.43564517-55.57734568 0-34.28383826-27.80705944-62.0946691-62.09089679-62.09466912-34.24706504 0-62.04940955 27.81083085-62.0541245 62.09466912 0 33.36828282 26.3644221 60.60300172 59.38948911 62.01263725l17.40687403 88.98617221c-45.75232866 11.69572991-86.8146743 35.15790647-119.76713842 66.9308024l-35.65198563-32.91474735a34.58085188 34.58085188 0 0 0 1.40586413-9.82407348c0-19.31436014-15.61347806-34.93443928-34.88918064-34.93443927-19.27664427 0-34.93066789 15.62007916-34.93538188 34.93443927 0 19.27381551 15.66156639 34.89012326 34.93538188 34.89012325 4.37788381 0 8.61150442-0.80052176 12.49153766-2.28370373l35.65670055 32.91097595c-25.25557252 30.66404545-43.84484257 67.04583609-53.52088145 106.89089773l-30.05681783-5.52350754c-3.50475914-22.24583609-22.7408588-39.27649339-45.97485322-39.27649247-25.713822 0-46.54907902 20.87674517-46.55379397 46.55285041 0 25.71287848 20.84091549 46.5481364 46.55379397 46.54813733 17.25318094 0 32.37823741-9.40825478 40.37591402-23.38768842l30.13225043 5.51973613a273.65687829 273.65687829 0 0 0-2.05740778 33.18158793c0 46.43310271 11.77399036 90.08936516 32.53475926 128.18063374l-126.89357561 78.66613339c-11.16016257-10.70568448-26.28239024-17.25789589-42.9292862-17.25789589-34.28383826 0-62.09184034 27.76934361-62.09184126 62.05318188 0 34.28383826 27.80800208 62.09184034 62.09184126 62.09184033s62.05695327-27.80705944 62.05412356-62.09184033a62.25967638 62.25967638 0 0 0-2.81549875-18.5515542l126.8822605-78.66330554a269.4817176 269.4817176 0 0 0 29.86823863 35.50300843c25.90334475 25.90240121 57.10578631 46.54907902 91.8035571 60.18718209l-32.37918093 98.96582492c-25.21785667 0.6100564-45.48077405 21.2171322-45.48077405 46.54907901 0 25.713822 20.87580255 46.54907902 46.58585316 46.54907995 25.71193585 0 46.55285134-20.83620055 46.55285042-46.54907995 0-15.0477386-7.12077964-28.38034263-18.20550962-36.90981426l32.37446599-99.00448337c21.9035629 5.78846195 44.9122049 8.8745736 68.64499436 8.87457362 10.43695866 0 20.68250841-0.6100564 30.81585234-1.75096519l2.47888405 14.16801284c-8.6907075 6.36174513-14.28493268 16.61012366-14.28493268 28.15027527 0 19.2775869 15.61725037 34.9316105 34.8929511 34.93161047 19.30870256 0 34.93255312-15.65402361 34.93255404-34.93161047 0-15.84354634-10.55010619-29.21669406-25.02927656-33.4861453l-2.47699787-14.13123962c45.33179593-10.58687939 86.24610607-32.64319274 119.53895628-62.96873732l73.85734436 72.26761506a61.93909081 61.93909081 0 0 0-8.26640244 31.00443245c0 34.24612241 27.77311502 62.05506711 62.05695236 62.05506806s62.05129571-27.8089447 62.05129571-62.05506806c0-34.28195209-27.76651483-62.09184034-62.05129571-62.09184033-11.76927543 0-22.78140342 3.27846318-32.14817004 8.9933787l-73.86488717-72.30344565c37.97340521-43.54028613 62.13144234-99.46273286 65.63525794-160.9435742H882.49363516c6.36174513 18.09519087 23.61586961 31.04780587 43.88255839 31.04780588 25.71287848 0 46.55190781-20.84091549 46.55190873-46.54907902 0-25.71570726-20.83997195-46.55190781-46.55190873-46.5519078-20.26668878 0-37.52081328 12.95355762-43.88255839 31.04686325H787.17871873c-3.45949958-60.83684048-27.15645844-116.26143666-64.49057775-159.61125743L868.47460043 211.69582896a46.06725758 46.06725758 0 0 0 20.83337178 4.94739557c25.67516263 0 46.55285134-20.87297378 46.55285135-46.58585223 0-25.713822-20.87768871-46.54907902-46.55285135-46.54907994-25.71287848 0-46.544365 20.83525794-46.54436499 46.54907994 0 6.93408568 1.48695338 13.48441093 4.18741843 19.38884917L701.20793959 330.16553674a270.98092871 270.98092871 0 0 0-37.25208653-28.76315951l39.64893778-70.5468229c2.58920277 0.45730687 5.25949571 0.68454545 7.99767661 0.68454452 25.71193585 0 46.55945152-20.83620055 46.55190874-46.54907902 0-25.71287848-20.83337177-46.54907902-46.55190874-46.54907901-25.713822 0-46.54530762 20.83620055-46.5453076 46.54907901a46.28035319 46.28035319 0 0 0 11.54675179 30.66404542l-39.66213907 70.50910801z" fill="#9400D3" p-id="1365"></path></svg>