<?xml version="1.0" standalone="no"?><!DOCTYPE svg PUBLIC "-//W3C//DTD SVG 1.1//EN" "http://www.w3.org/Graphics/SVG/1.1/DTD/svg11.dtd"><svg t="1633341540744" class="icon" viewBox="0 0 1024 1024" version="1.1" xmlns="http://www.w3.org/2000/svg" p-id="1264" xmlns:xlink="http://www.w3.org/1999/xlink" width="128" height="128"><defs><style type="text/css"></style></defs><path d="M519.648175 478.370132c27.904481 0 50.513363 22.612975 50.513363 50.52155 0.008186 27.901411-22.609905 50.518479-50.513363 50.518479s-50.521549-22.618092-50.521549-50.518479c0.005117-27.909597 22.618092-50.521549 50.521549-50.52155z" fill="#9400D3" p-id="1265"></path><path d="M519.648175 411.024439c65.11182 0 117.904081 52.750306 117.904081 117.866219 0 65.109773-52.792261 117.905105-117.904081 117.905105s-117.865196-52.795331-117.865195-117.905105c0.00307-65.115913 52.753376-117.866219 117.865195-117.866219z m127.947812-144.118063c-38.612336-18.889171-82.060807-29.515162-127.947812-29.515162a295.079986 295.079986 0 0 0-39.39721 2.648311l-19.019131-97.111564c22.160675-11.038382 37.376184-33.901043 37.372091-60.316617 0-37.207339-30.178263-67.389695-67.385601-67.389695-37.16743 0-67.340576 30.182356-67.345693 67.389695 0 36.213711 28.612607 65.770828 64.453835 67.300668l18.891218 96.574329c-49.653787 12.693065-94.21766 38.155942-129.980094 72.638222l-38.692153-35.721501a37.52968 37.52968 0 0 0 1.525747-10.661806c0-20.961362-16.944893-37.913419-37.864301-37.913419-20.92043 0-37.909326 16.952057-37.914442 37.913419 0 20.91736 16.997082 37.865324 37.914442 37.865324 4.751201 0 9.345837-0.868785 13.556734-2.478443l38.69727 35.717408c-27.409202 33.278874-47.583643 72.763065-58.084791 116.005852l-32.619866-5.994516c-3.803622-24.142815-24.68005-42.625735-49.895287-42.625734-27.906528 0-50.518479 22.656977-50.523596 50.522572 0 27.905504 22.618092 50.517456 50.523596 50.517457 18.724419 0 35.139241-10.210529 43.818907-25.382037l32.701731 5.990423a296.992541 296.992541 0 0 0-2.23285 36.011096c0 50.392613 12.777999 97.771595 35.30911 139.111037l-137.714227 85.374265c-12.111828-11.618595-28.52358-18.729536-46.590014-18.729536-37.207339 0-67.386625 30.137331-67.386626 67.34467 0 37.207339 30.179286 67.386625 67.386626 67.386625s67.348763-30.178263 67.345692-67.386625a67.568773 67.568773 0 0 0-3.055586-20.133509l137.701947-85.371196a292.46135 292.46135 0 0 0 32.415206 38.530472c28.112212 28.111188 61.975393 50.518479 99.631962 65.31955l-35.140265 107.404981c-27.36827 0.662078-49.359076 23.02639-49.359076 50.518479 0 27.906528 22.655954 50.518479 50.558389 50.51848 27.904481 0 50.522573-22.612975 50.522572-50.51848 0-16.330911-7.727993-30.800432-19.757956-40.057241l35.135148-107.446936c23.771355 6.282064 48.742023 9.631339 74.498589 9.631339 11.326954 0 22.446177-0.662078 33.443626-1.900276l2.690267 15.376168c-9.431794 6.904233-15.503058 18.026526-15.503058 30.550746 0 20.921453 16.948987 37.910349 37.868393 37.910349 20.955222 0 37.911372-16.988896 37.911373-37.910349 0-17.19458-11.44975-31.708102-27.163609-36.341624l-2.68822-15.336259c49.197394-11.489659 93.600608-35.42679 129.732454-68.338298l80.155414 78.430123a67.22085 67.22085 0 0 0-8.971307 33.648287c0 37.166407 30.141424 67.346716 67.348762 67.346717s67.342623-30.180309 67.342623-67.346717c0-37.205292-30.134261-67.386625-67.342623-67.386625-12.772882 0-24.724052 3.558029-34.889555 9.760275l-80.1636-78.469009c41.211528-47.253116 67.429604-107.944262 71.232202-174.667786H914.086901c6.904233 19.63823 25.629676 33.695359 47.624575 33.695359 27.905504 0 50.521549-22.618092 50.52155-50.518479 0-27.908574-22.617068-50.521549-50.52155-50.521549-21.994899 0-40.720342 14.058152-47.624575 33.694336H810.644154c-3.754503-66.024607-29.472183-126.175449-69.989911-173.221858L898.872415 186.08786a49.995571 49.995571 0 0 0 22.609905 5.369277c27.864572 0 50.522573-22.652884 50.522573-50.558388 0-27.906528-22.658001-50.518479-50.522573-50.51848-27.905504 0-50.513363 22.611952-50.513363 50.51848 0 7.525379 1.613751 14.634273 4.544494 21.042203L717.342351 314.659887a294.088404 294.088404 0 0 0-40.4287-31.215893l43.029939-76.562593c2.809993 0.496303 5.707991 0.742919 8.679666 0.742918 27.904481 0 50.529736-22.612975 50.52155-50.518479 0-27.905504-22.609905-50.518479-50.52155-50.518479-27.906528 0-50.514386 22.612975-50.514386 50.518479a50.226838 50.226838 0 0 0 12.531383 33.278874l-43.044266 76.521662z" fill="#9400D3" p-id="1266"></path></svg>