<?xml version="1.0" standalone="no"?><!DOCTYPE svg PUBLIC "-//W3C//DTD SVG 1.1//EN" "http://www.w3.org/Graphics/SVG/1.1/DTD/svg11.dtd"><svg t="1635600220491" class="icon" viewBox="0 0 1024 1024" version="1.1" xmlns="http://www.w3.org/2000/svg" p-id="1363" xmlns:xlink="http://www.w3.org/1999/xlink" width="128" height="128"><defs><style type="text/css"></style></defs><path d="M512 765.72288561c19.11923617 0 34.29647889 15.9270167 34.29647889 34.79632821 0 19.59636505-15.17724274 34.54640355-34.29647889 34.54640355s-34.29647889-14.95003848-34.29647889-34.54640355c0-18.86931151 15.17724274-34.7963282 34.29647889-34.79632821zM263.57489219 200.06386822c19.11923617 0 34.54640355 15.67709205 34.54640357 34.7963282 0 18.86931151-15.42716738 34.29647889-34.54640357 34.29647889-19.08515553 0-34.52368315-15.42716738-34.52368311-34.29647889 0.01136021-19.11923617 15.4385276-34.7963282 34.52368311-34.7963282z m495.37338809 0c19.08515553 0 34.29647889 15.67709205 34.2964789 34.7963282 0 18.86931151-15.19996317 34.29647889-34.2964789 34.29647889-19.36916082 0-34.7963282-15.42716738-34.79632821-34.29647889 0-19.11923617 15.42716738-34.7963282 34.79632821-34.7963282zM512 710.83034305c52.90450554-43.10064291 96.50499774-98.45895415 129.34736956-158.96344125 35.27345709-65.90058763 57.57355251-138.92402796 66.62764117-212.90172606-6.37307871-5.87322941-12.72343702-11.76917925-18.60802663-18.60802664l-0.4771289-0.47712887c-5.89594984-6.87292801-11.76917925-13.24600676-17.15391957-19.84628971h-319.22194662c-5.62330476 6.60028295-11.51925458 13.47321098-17.63104842 20.32341858s-12.49623279 12.74615746-18.86931153 18.60802664c8.82688443 73.97769809 31.85403341 147.00113843 67.12749048 212.6518014 32.08123764 60.75441175 75.9316545 116.12408322 128.85888046 159.21336591z m165.58644465-139.62836106c-37.7272628 70.56963461-88.67781194 133.27800277-152.85164741 182.02467084v0.24992465c-7.35005691 5.62330476-17.63104845 5.87322941-25.23103003 0-63.94663122-48.7693885-115.39702968-111.7049609-153.37421713-182.27459549-38.93144523-72.75079525-63.44678192-154.57839956-72.25094593-237.13305746-0.9769782-6.87292801 0.9769782-14.20026452 6.8502076-19.11923614 8.32703511-6.8502076 16.65407024-14.92731807 23.52699828-22.52729967l0.47712889-0.24992465c7.35005691-7.59998158 14.22298496-16.17694135 20.57334324-24.73118071 3.69206878-5.39610052 10.31507215-9.07680909 17.15391956-9.07680908h339.05687614c6.12315406 0 12.72343702 3.18085926 16.65407024 8.57695978 6.60028295 8.57695978 13.72313564 17.63104845 21.07319256 25.23103001h0.47712889c6.87292801 7.84990623 14.95003848 14.95003848 23.52699826 22.77722432 4.89625121 3.90791279 7.82718581 11.25796972 7.10013228 18.14225796-8.56559956 82.80458253-33.54670493 164.8707513-72.76215544 238.11003564zM512 884.30077455c226.85206592-117.10106141 357.17641367-368.70702848 357.17641367-619.56322156l-0.24992466-21.30039679c-52.90450554-17.15391955-93.32413849-61.25426108-105.58180683-115.39702968h-502.68936436c-12.24630812 53.88148373-52.90450554 98.23174992-105.3318822 115.39702968l-0.47712887 21.30039679c-0.02272042 250.85619309 130.30162733 502.46216014 357.15369325 619.56322156z m15.67709205 69.05872646c-9.30401332 4.66904699-20.57334325 5.1688963-30.87705522 0C238.11665795 828.90838267 85.74213944 547.19785482 85.74213944 264.73755299c0-6.12315406 0.22720424-14.92731807 0.47712889-25.7081589 0.24992465-9.30401332 0.72705355-17.63104845 0.9769782-24.50397648 0.49984931-16.65407024 13.72313564-31.5813883 30.87705519-33.56942533 43.60049221-5.14617587 76.90863269-42.37358936 77.41984222-86.22400624v-0.9769782c0-19.11923617 15.17724274-34.7963282 34.2964789-34.7963282h564.43211455c19.11923617 0 34.29647889 15.67709205 34.29647889 34.7963282 0 44.32754576 33.31950069 81.82760433 77.41984221 87.20098444 16.40414558 1.97667682 29.4002277 15.44988782 30.85433476 32.11531824 0.49984931 7.35005691 0.49984931 16.15422092 0.97697822 25.96944378 0.49984931 10.79220105 0.49984931 19.59636505 0.49984929 25.7081589-0.01136021 282.19901696-151.90874985 563.94362546-410.59212871 688.61058781z" fill="#13227a" p-id="1364"></path></svg>