<?xml version="1.0" standalone="no"?><!DOCTYPE svg PUBLIC "-//W3C//DTD SVG 1.1//EN" "http://www.w3.org/Graphics/SVG/1.1/DTD/svg11.dtd"><svg t="1633189941817" class="icon" viewBox="0 0 1024 1024" version="1.1" xmlns="http://www.w3.org/2000/svg" p-id="1132" xmlns:xlink="http://www.w3.org/1999/xlink" width="120" height="120"><defs><style type="text/css"></style></defs><path d="M512 791.72948139c21.07895788 0 37.81186798 17.55953591 37.81186798 38.36295185 0 21.60499247-16.73291011 38.08740991-37.81186798 38.08740992s-37.81186798-16.48241743-37.81186798-38.08740992c0-20.80341594 16.73291011-38.36295184 37.81186798-38.36295185zM238.11131865 168.09041472c21.07895788 0 38.08740991 17.28399398 38.08740991 38.36295184 0 20.80341594-17.00845204 37.81186798-38.08740991 37.81186798-21.04138397 0-38.06236066-17.00845204-38.06236064-37.81186798 0.01252464-21.07895788 17.02097668-38.36295184 38.06236064-38.36295184z m546.14916036 0c21.04138397 0 37.81186798 17.28399398 37.81186799 38.36295184 0 20.80341594-16.75795939 37.81186798-37.81186799 37.81186798-21.3544998 0-38.36295184-17.00845204-38.36295185-37.81186798 0-21.07895788 17.00845204-38.36295184 38.36295185-38.36295184zM512 731.21045321c58.32721735-47.5184588 106.39676001-108.55099695 142.60547494-175.25719398 38.88898644-72.65539787 63.47484164-153.16374082 73.45697439-234.72415298-7.02631929-6.47523542-14.02758931-12.97552012-20.51534936-20.51534936l-0.52603461-0.5260346c-6.50028469-7.57740314-12.97552012-14.60372244-18.91219631-21.8805344h-351.94219617c-6.19969349 7.27681196-12.69997819 14.85421511-19.43823089 22.406569s-13.77709665 14.05263859-20.80341595 20.51534936c9.73164009 81.56041215 35.11907183 162.06875511 74.00805826 234.44861105 35.3695645 66.98173897 83.71464909 128.02680176 142.0669157 175.53273591z m182.55905522-153.94026807c-41.59430724 77.80302215-97.76728766 146.93899806-168.51894127 200.68219961v0.27554193c-8.10343775 6.19969349-19.43823091 6.47523542-27.8172106 0-70.50116093-53.76825082-127.22522522-123.15471939-169.09507439-200.95774154-42.92191837-80.20775175-69.95007707-170.42268552-79.65666789-261.43919585-1.07711847-7.57740314 1.07711847-15.65579164 7.55235389-21.07895785 9.18055621-7.55235389 18.36111244-16.45736818 25.9385156-24.83634788l0.5260346-0.27554192c8.10343775-8.37897969 15.68084092-17.83507783 22.68211093-27.26612673 4.07050583-5.94920083 11.37236705-10.00718203 18.91219632-10.00718203h373.81020593c6.75077736 0 14.02758931 3.50689733 18.36111243 9.45609817 7.27681196 9.45609815 15.12975704 19.43823091 23.23319481 27.81721059h0.5260346c7.57740314 8.65452163 16.48241743 16.48241743 25.93851559 25.1118898 5.39811696 4.30847385 8.62947236 12.41191162 7.82789583 20.00183941-9.44357353 91.29205224-36.98524219 181.77000331-80.22027638 262.51631429zM512 922.46160395c250.10440269-129.10392021 393.78699607-406.49949889 393.78699607-683.06845178l-0.27554193-23.48368747c-58.32721735-18.91219631-102.88986269-67.53282284-116.40394203-127.22522521h-554.21502422c-13.50155471 59.40433582-58.32721735 108.30050429-116.12840011 127.22522521l-0.52603458 23.48368747c-0.02504926 276.56895288 143.65754413 553.96453155 393.7619468 683.06845178z m17.28399398 76.13724592c-10.25767469 5.1476243-22.68211093 5.69870817-34.04195337 0C210.04361539 861.39149189 42.05070873 550.80563493 42.05070873 239.39315217c0-6.75077736 0.25049266-16.45736818 0.5260346-28.34324518 0.27554193-10.25767469 0.80157654-19.43823091 1.07711847-27.01563407 0.55108386-18.36111244 15.12975704-34.81848061 34.04195335-37.01029144 48.06954266-5.67365889 84.79176754-46.71688227 85.35537604-95.06196688v-1.07711846c0-21.07895788 16.73291011-38.36295184 37.81186799-38.36295184h622.28640628c21.07895788 0 37.81186798 17.28399398 37.81186799 38.36295184 0 48.8711192 36.73474951 90.21493377 85.35537604 96.13908534 18.08557051 2.17928619 32.41375103 17.03350132 34.01690408 35.40713837 0.55108386 8.10343775 0.55108386 17.81002857 1.07711847 28.63131176 0.55108386 11.89840165 0.55108386 21.60499247 0.55108385 28.3432452-0.01252464 311.12441619-167.4793967 621.74784706-452.67782191 759.19317306z" fill="#13227a" p-id="1133"></path></svg>