<?xml version="1.0" standalone="no"?><!DOCTYPE svg PUBLIC "-//W3C//DTD SVG 1.1//EN" "http://www.w3.org/Graphics/SVG/1.1/DTD/svg11.dtd"><svg t="1635600789448" class="icon" viewBox="0 0 1024 1024" version="1.1" xmlns="http://www.w3.org/2000/svg" p-id="1395" xmlns:xlink="http://www.w3.org/1999/xlink" width="128" height="128"><defs><style type="text/css"></style></defs><path d="M924.20366211 274.20674924L717.29329503 67.24464466c-13.7709811-13.7742835-36.08965752-13.7742835-49.86063861 0-13.75997312 13.76327552-13.75997312 36.08745591 0 49.86173942l24.92976891 24.93637369 114.87926363 114.90788437H317.12135342c-116.67466492 0-212.79303079 93.61955475-213.60872199 210.31183244-0.04403192 7.64724266 0.3082234 15.19541353 1.03585077 22.63350458 1.79540129 18.08280628 16.9434805 31.88901292 35.10884663 31.88901293 19.53255704 0 35.28607508-15.83497708 35.28607508-34.93051738 0-1.17895449-0.06604787-2.36891698-0.18713563-3.56988742a145.06314067 145.06314067 0 0 1-0.73863536-15.54766884c0.5614069-77.86163353 64.8204814-140.26366205 142.66230056-140.26366204h488.85441801l-36.0456256 36.05443197-102.04506149 102.08138783c-13.7709811 13.76327552-13.7709811 36.08745591 0 49.86173941 6.87448257 6.88659135 15.89662174 10.32548382 24.91876093 10.32548383s18.04537916-3.43779169 24.9297689-10.32548383l206.91036709-206.97311255c9.4756679-9.46465991 9.4756679-24.81418513 0.00110079-34.29095383z m-480.82299689 17.15703529l-0.01100798-0.01100799 0.01100798-0.01100797 0.01100797 0.01100797-0.01100797 0.01100799z m148.05731083 430.6937636l0.01100798-0.01100797-0.01100798-0.01100799-0.01100797 0.01100799 0.01100797 0.01100797z" p-id="1396"></path><path d="M591.43797605 722.05754813l0.01100798-0.01100797-0.01100798-0.01100799-0.01100797 0.01100799 0.01100797 0.01100797z" p-id="1397"></path><path d="M110.61497916 754.05333844L317.52534623 961.01544302c13.7709811 13.7742835 36.08965752 13.7742835 49.86063862 0 13.75997312-13.76327552 13.75997312-36.08745591 0-49.86173942l-24.92976891-24.93637369-114.87926363-114.90788437h490.12033554c116.67466492 0 212.79303079-93.61955475 213.60872199-210.31183244 0.04403192-7.64724266-0.3082234-15.19541353-1.03585077-22.63350458-1.79540129-18.08280628-16.9434805-31.88901292-35.10884663-31.88901293-19.53255704 0-35.28607508 15.83497708-35.28607508 34.93051738 0 1.17895449 0.06604787 2.36891698 0.18713563 3.56988742 0.51737498 5.10219803 0.77165929 10.29135911 0.73863536 15.54766884-0.5614069 77.86163353-64.8204814 140.26366205-142.66230056 140.26366204H229.28428978l36.0456256-36.05443197 102.04506149-102.08138784c13.7709811-13.76327552 13.7709811-36.08745591 0-49.8617394-6.87448257-6.88659135-15.89662174-10.32548382-24.91876093-10.32548383s-18.04537916 3.43779169-24.92976891 10.32548383L110.61497916 719.76238461c-9.47346629 9.46465991-9.47346629 24.81528593 0 34.29095383z m480.82299689-17.15703529l0.01100798 0.01100798-0.01100798 0.01100798-0.01100797-0.01100798 0.01100797-0.01100798z" p-id="1398"></path></svg>