<?xml version="1.0" standalone="no"?><!DOCTYPE svg PUBLIC "-//W3C//DTD SVG 1.1//EN" "http://www.w3.org/Graphics/SVG/1.1/DTD/svg11.dtd"><svg t="1633188700640" class="icon" viewBox="0 0 1024 1024" version="1.1" xmlns="http://www.w3.org/2000/svg" p-id="1239" xmlns:xlink="http://www.w3.org/1999/xlink" width="120" height="120"><defs><style type="text/css"></style></defs><path d="M860.36863749 498.10912925l-51.7801237 51.74435561-521.88927754-521.9078231-254.38999149 4.40067412-4.36490732 254.39131709 521.89060186 521.8707307-51.76290246 51.74303259 51.76290246 51.74567991 103.48606259-103.4873869 155.63048101 155.62915541c42.61712938 42.58136258 112.07016011 42.39987739 154.90189288-0.40006152 42.76549642-42.79728898 42.98274841-112.250321 0.36429341-154.83035799L808.58851379 653.34087306l103.48871252-103.4873882-51.70858882-51.74435561z m52.14309282 362.64234722c14.17965765 14.18230627 14.10812275 37.34347302-0.14571841 51.63573091-14.32537476 14.25251554-37.45209903 14.32537476-51.6344053 0.10862601L705.1024499 756.86402805l51.70461588-51.7443569L912.51173031 860.75147647z m-310.97085082-103.88744842l-500.43433294-500.4899709 2.61629421-152.61279967 152.65121639-2.61761982 500.43433295 500.45552842-155.26751061 155.26486197z" fill="#d81e06" p-id="1240"></path></svg>