<?xml version="1.0" standalone="no"?><!DOCTYPE svg PUBLIC "-//W3C//DTD SVG 1.1//EN" "http://www.w3.org/Graphics/SVG/1.1/DTD/svg11.dtd"><svg t="1635600175581" class="icon" viewBox="0 0 1024 1024" version="1.1" xmlns="http://www.w3.org/2000/svg" p-id="1363" xmlns:xlink="http://www.w3.org/1999/xlink" width="128" height="128"><defs><style type="text/css"></style></defs><path d="M838.59559765 498.97730867l-48.54386597 48.51033339-489.2711977-489.28858416-238.49061702 4.12563199-4.09210061 238.49185977 489.27243924 489.25381003-48.52772105 48.50909305 48.52772105 48.51157492 97.01818368-97.01942522 145.90357595 145.9023332c39.95355879 39.92002742 105.0657751 39.74988505 145.22052457-0.37505768 40.09265289-40.12245842 40.29632663-105.23467594 0.34152508-145.15346061L790.05173168 644.50706849l97.02066799-97.01942643-48.47680202-48.51033339z m48.88414952 339.97720052c13.29342905 13.29591213 13.22636508 35.00950596-0.13661101 48.40849773-13.43003884 13.36173332-35.11134284 13.43003884-48.40725497 0.10183688L693.03354678 741.5600263l48.47307739-48.5103346L887.47974717 838.95450919z m-291.53517265-97.39448289l-469.15718713-469.20934772 2.45277582-143.07449969 143.11051537-2.45401858 469.15718714 469.17705789-145.5632912 145.5608081z" fill="#d81e06" p-id="1364"></path></svg>