<?xml version="1.0" standalone="no"?><!DOCTYPE svg PUBLIC "-//W3C//DTD SVG 1.1//EN" "http://www.w3.org/Graphics/SVG/1.1/DTD/svg11.dtd"><svg t="1640080168502" class="icon" viewBox="0 0 1366 1024" version="1.1" xmlns="http://www.w3.org/2000/svg" p-id="1762" xmlns:xlink="http://www.w3.org/1999/xlink" width="170.75" height="128"><defs><style type="text/css"></style></defs><path d="M1186.50066884-43.42538392L394.82484466-165.11421549c-42.66118792-6.54754452-79.28300711 23.94297324-85.8356599 66.59139345L302.39567462-54.90912418l733.40931198 0C1078.9615826-54.90912418 1112.64926402-21.34912597 1112.64926402 21.80747002L1112.64926402 942.79986197l136.95707324-897.62143464C1256.15388178 2.53000564 1229.16696355-36.87528526 1186.50066884-43.42538392z" p-id="1763" fill="#1296db"></path><path d="M1002.97788394-29.37267662L202.00934818-29.37267662C158.84764541-29.37267662 129.49605269 2.22101563 129.49605269 45.37761013l0 1061.46583244C129.49605269 1149.99493179 158.84764541 1186.16220171 202.00934818 1186.16220171l800.96853724 0C1046.144695 1186.16220171 1079.45188237 1149.99493179 1079.45188237 1106.84344406L1079.45188237 45.37761013C1079.45188237 2.22101563 1046.144695-29.37267662 1002.97788394-29.37267662zM897.13186563 701.84305404c-16.32034379 38.06462744-38.68771725 71.32585071-67.13787242 99.7555772-28.45015513 28.45781608-61.70116334 50.83285196-99.76323812 67.14553333-38.06462744 16.31523553-78.84377972 24.47413034-122.34256359 24.47413034-43.50133803 0-84.28559708-8.15889483-122.35022453-24.47413034-38.05952066-16.31268285-71.31818978-38.68771725-99.75812985-67.14553333-28.44504834-28.43228062-50.82263689-61.69094825-67.13531976-99.7555772-16.30757459-38.06973574-24.4715777-78.83867293-24.47157769-122.34001094 0-43.49878388 8.15634068-84.27538201 24.46902357-122.34767189 16.31012871-38.06207481 38.6902714-71.32329657 67.13531974-99.75302304 28.44504834-28.45015513 61.69350238-50.81753012 99.76323813-67.13021148 38.06207481-16.32034379 78.84888802-24.48179128 122.35022452-24.48179128 43.49878388 0 84.27793616 8.16144897 122.34256361 24.47157771 38.0722884 16.31268285 71.31563564 38.6902714 99.76323813 67.14042652 28.45015513 28.43228062 50.81753012 61.69094825 67.13787241 99.74791625 16.30502192 38.06973574 24.47413034 78.85654895 24.47413032 122.35533283C921.60599595 623.00438111 913.43688607 663.77331979 897.13186563 701.84305404z" p-id="1764" fill="#1296db"></path><path d="M812.43002396 522.08689608c-2.08632821-1.05210212-4.18542417-2.53576918-6.27175091-2.96222735-2.08632821-0.83504181-3.9760248-2.01737981-5.64610843-2.01737982l-4.39482202 0-121.0963855 0c-2.08632821 0-3.97347067-0.0689484-5.64610844-1.74158618-2.51023225-1.67774456-3.7640728-2.96733565-3.76407279-4.63741928l-35.13048967-125.29457737c-0.84014861-2.08632821-1.58070657-3.97857895-2.20124226-5.86572141-0.63075074-1.87948299-1.57304563-3.82791291-2.82177789-5.9244562-1.67774456-1.67008365-3.87132589-3.52913648-6.59351012-5.61801885-2.71963162-2.08888087-6.37389717-3.32739955-10.97556443-3.7538577-4.60166726 0.42645816-8.37084683 1.68285136-11.29221688 3.77173372-2.93158362 2.08888087-5.0153577 3.97857895-6.27430504 5.64866257-1.25383906 2.0965418-2.19613394 4.09349296-2.8217779 5.97042183-0.62564243 1.88714392-1.36109212 3.86877173-2.19613395 5.96531351l-35.13559796 125.49120753c0 1.6624227-1.2563932 2.56641294-3.76662544 4.25437259-1.67008365 1.6624227-3.55467343 1.73392525-5.64610845 1.73392524l-121.08872454 0c-2.0965418 0-4.29267724 0.88356156-6.59351013 1.08274585-2.30083437 0.20939937-4.70636769 1.31768066-7.21404579 2.57918066-3.76151865 1.25128641-6.69821055 3.53935156-8.78198464 6.47859611-3.76662543 3.75896451-5.23241799 8.03376576-4.39482203 12.63288033 0 3.3427214 0.52349766 6.22067849 1.57049149 8.51895875 1.03933288 2.30338703 2.188473 4.32076684 3.43975942 5.99340461 2.0965418 2.5127864 5.23241799 4.81872755 9.41784217 6.90505577l97.25300438 64.0071045c0.83504181 0.83504181-0.15832548 2.29572609 0.88356157 4.39482203 1.04699383 2.0965418-0.36772485 4.1981919-0.36772483 6.27685918l0 1.8845898-36.34347143 123.60151093c-0.41624459 2.08888087 0.13789682 3.96836387-0.28345456 5.64610844-0.41369044 1.6802987-0.14555774 3.55978023-0.14555774 5.64866259 0 1.6675295 0.45454925 3.67214158 0.86823969 5.95509995 0.42390551 2.31104797 1.80287367 4.9183197 3.88920039 7.84990332 1.67519043 2.50512545 4.13690441 4.48675324 7.2727806 5.97297445 3.13842885 1.44280976 5.99595726 2.18592036 8.50619102 2.18592036 5.43670907-0.41624459 9.4255031-1.36875306 11.93062855-2.82177788 2.51023225-1.46068427 5.03067956-3.24823606 7.53580502-5.33711693l95.37862967-80.94542981c0.41879722-1.25128641 2.09398914-1.88714392 5.02557279-1.88714395 2.08888087 0 3.55467343 0.42645816 4.38971523 1.26149999l100.38632646 82.19671623c2.93158362 1.67774456 5.75591565 1.05210212 8.46788632 2.51278638 2.72218574 1.47089934 6.38155811 0.64351847 10.98577952 0.64351848l0.62564245 0c2.5127864 0 5.22986384 1.45557748 8.1512339-0.0102151 2.93924456-1.46579256 5.2273112-2.35701357 6.91526935-4.86213901 2.07866729-2.92903096 3.44231356-4.90044368 4.07817109-6.98932606 0.61542888-2.08632821 0.93463396-3.71555306 0.93463396-5.37031481 0-2.08888087-0.2170603-3.953042-0.6281966-5.832525-0.42390551-1.88714392-1.04188703-3.7998233-1.87692885-5.88870419l-42.67395714-124.82726039c-0.40858366-0.41113629-0.62564243-1.03167194-0.62564245-1.86671377 0-1.67008365 0.52605031-3.5470125 1.56793734-5.63334073 1.05465477-2.0965418 1.98928873-3.34016727 2.82433055-3.7589645l96.62991608-63.99688942c3.75896451-1.6802987 6.69054962-3.98623988 8.77943049-6.89994748 1.25383906-1.67008365 2.50512545-3.65937235 3.76917958-5.97297446 1.25128641-2.28806515 1.87948299-5.12005813 1.87948299-8.46788633 0-4.59400633-1.46323842-8.78709143-4.38716108-12.53584236C816.61544813 524.91888905 814.52656576 523.13133725 812.43002396 522.08689608z" p-id="1765" fill="#1296db"></path></svg>