<?xml version="1.0" standalone="no"?><!DOCTYPE svg PUBLIC "-//W3C//DTD SVG 1.1//EN" "http://www.w3.org/Graphics/SVG/1.1/DTD/svg11.dtd"><svg t="1635600382484" class="icon" viewBox="0 0 1024 1024" version="1.1" xmlns="http://www.w3.org/2000/svg" p-id="1663" xmlns:xlink="http://www.w3.org/1999/xlink" width="128" height="128"><defs><style type="text/css"></style></defs><path d="M322.2896495 873.77322653c90.44330662 50.73648907 176.47474465 81.61956942 180.88661327 83.82550373l8.82373723 2.20593427 8.82373723-2.20593427c4.41186862-2.20593432 92.64924095-30.88308032 180.88661327-83.82550373 125.73825557-72.79583219 189.7103505-147.79759864 189.71035051-227.21123372V172.28611653l-24.26527741-2.20593429c-72.79583219-8.82373723-273.53585423-41.91275186-337.50794915-97.06110957l-17.64747445-17.64747445-17.64747445 15.44154014c-63.97209495 57.35429202-264.712117 88.23737233-337.50794915 97.06110956l-24.26527741 2.20593432V644.35605848c0 81.61956942 63.97209495 156.62133586 189.71035051 229.41716805z m-134.56199279-652.95655521c63.97209495-8.82373723 240.4468396-37.50088323 326.47827761-94.85517524 83.82550371 57.35429202 260.30024837 86.03143801 326.47827758 94.85517524v425.74532149c0 112.50264972-227.21123374 218.3874965-326.47827758 253.68244543-99.26704386-35.29494894-324.27234329-141.17979572-324.27234333-253.68244543V220.81667132z" fill="#13227a" p-id="1664"></path><path d="M485.52878831 688.47474465h55.1483577v-169.85694172H710.53408773v-55.14835773h-169.85694172V291.40656917h-55.1483577v172.06287603H313.46591227v55.14835773h172.06287604z" fill="#13227a" p-id="1665"></path></svg>