<?xml version="1.0" standalone="no"?><!DOCTYPE svg PUBLIC "-//W3C//DTD SVG 1.1//EN" "http://www.w3.org/Graphics/SVG/1.1/DTD/svg11.dtd"><svg t="1633372467124" class="icon" viewBox="0 0 1024 1024" version="1.1" xmlns="http://www.w3.org/2000/svg" p-id="1360" xmlns:xlink="http://www.w3.org/1999/xlink" width="128" height="128"><defs><style type="text/css"></style></defs><path d="M302.84433857 910.85498226c99.71374555 55.93697921 194.56340597 89.98557528 199.42749113 92.41761785l9.7281703 2.43204255 9.7281703-2.43204255c4.86408515-2.43204258 102.14578814-34.04859604 199.42749113-92.41761785 138.62642676-80.25740498 209.15566143-162.9468525 209.15566143-250.50038519V137.46544348l-26.75246834-2.43204257c-80.25740498-9.7281703-301.57327928-46.20880893-372.10251393-107.00987329l-19.45634059-19.45634058-19.45634059 17.02429801c-70.52923468 63.23310695-291.84510898 97.28170299-372.10251393 107.00987329l-26.75246834 2.43204257V657.92255449c0 89.98557528 70.52923468 172.67502279 209.15566143 252.93242777z m-148.35459706-719.88460213c70.52923468-9.7281703 265.09264065-41.34472376 359.94230107-104.57783071 92.41761784 63.23310695 286.98102383 94.84966041 359.94230105 104.57783071v469.38421694c0 124.03417133-250.50038521 240.7722149-359.94230105 279.68489608-109.44191586-38.91268119-357.51025849-155.65072479-357.5102585-279.68489608V190.97038013z" fill="#13227a" p-id="1361"></path><path d="M482.8154891 706.56340597h60.80106437v-187.26727825H730.88383173v-60.80106438h-187.26727826V268.79574252h-60.80106437v189.69932082H293.11616827v60.80106438h189.69932083z" fill="#13227a" p-id="1362"></path></svg>