<?xml version="1.0" standalone="no"?><!DOCTYPE svg PUBLIC "-//W3C//DTD SVG 1.1//EN" "http://www.w3.org/Graphics/SVG/1.1/DTD/svg11.dtd"><svg t="1643525791513" class="icon" viewBox="0 0 1024 1024" version="1.1" xmlns="http://www.w3.org/2000/svg" p-id="1678" xmlns:xlink="http://www.w3.org/1999/xlink" width="128" height="128"><defs><style type="text/css"></style></defs><path d="M479.51006964 821.70248371l281.54982941-281.5487209c17.31916665-17.32138369 17.31916665-38.98725154 0-56.3075267l-281.54982941-281.5487209c-6.4978749-6.4978749-15.15801302-10.82239919-25.98041221-10.82239919-10.83348873 0-21.66697638 4.32452429-28.15376281 10.82239919l-62.81649005 64.9787522c-8.66013704 6.4978749-12.98466242 15.15801302-12.98466242 25.98041221 0 12.99575088 4.32452429 21.66697638 12.98466242 28.15376281l188.42729325 190.58955541-188.42729325 190.57957654c-8.66013704 6.49676637-12.98466242 15.16910148-12.98466242 28.16263423 0 10.82461732 4.32452429 19.48253732 12.98466242 25.98263033l62.81649005 64.9787522c6.48678644 6.49676637 17.32027517 10.82239919 28.15376281 10.82239919C464.35094809 832.52488398 473.01108514 828.19925008 479.51006964 821.70248371L479.51006964 821.70248371zM923.48238507 750.224747c-43.31066731 71.47773671-101.78045616 129.94752556-173.25819178 173.25819179-69.3032765 41.1506222-149.42895326 62.80651012-238.22585661 62.80651012-88.79690227 0-168.92147051-21.6547794-238.22474701-62.80651012-71.47662819-43.31066731-129.94641595-101.78045616-173.25819178-173.25819179-41.14951368-69.3032765-62.8054016-149.42895326-62.8054016-238.224747 0-88.79690227 21.65588792-168.92257903 62.8054016-238.22585661 43.31177583-71.47662819 101.78156468-129.94641595 173.25819178-173.25819178 69.3032765-41.14951368 149.42895326-62.8054016 238.22474701-62.8054016 88.79690227 0 168.92257903 21.65588792 238.22585661 62.8054016 71.47773671 43.31177583 129.94752556 101.78156468 173.25819178 173.25819178 41.1506222 69.3032765 62.80651012 149.42895326 62.80651012 238.22585661C986.28778667 600.79579375 964.63300836 680.92147051 923.48238507 750.224747z" fill="#2c2c2c" p-id="1679"></path></svg>