<?xml version="1.0" standalone="no"?><!DOCTYPE svg PUBLIC "-//W3C//DTD SVG 1.1//EN" "http://www.w3.org/Graphics/SVG/1.1/DTD/svg11.dtd"><svg t="1633273486127" class="icon" viewBox="0 0 1024 1024" version="1.1" xmlns="http://www.w3.org/2000/svg" p-id="1231" xmlns:xlink="http://www.w3.org/1999/xlink" width="128" height="128"><defs><style type="text/css"></style></defs><path d="M335.32636522 874.44424357c-239.14717505-192.32947839-315.2259321-537.41161111-326.23602601-562.50669003-11.01009391-25.09507893 1.58704056-200.95901145 120.11913271-256.60462126 118.43290212-55.74479984 177.35178307 15.67202557 182.70804497 70.22654497 39.0808739 82.9228695-67.15165388 151.66156392-103.15763668 159.49757672S190.01296354 328.79985954 190.01296354 328.79985954c121.21022311 70.42492504 215.73832671 173.88013183 257.0013814 223.2767694-0.09919005 0.09919005-23.50803835 105.24062742 10.91090388 152.55427423 0 0-10.21657364-20.33395723 11.70442415-124.18592415 31.14567109-146.99963227 204.92661288-151.56237391 204.92661288-151.56237391-7.83601278-54.65370943 75.28523676-97.10704455 75.28523677-97.10704455l2.2813708 0.69433028c-4.95950177-6.14978218-8.03439287-9.81981349-8.03439285-9.81981351l99.98355555-99.98355554c12.79551455-12.79551455 34.51813228-7.34006262 39.8743942 9.91900352L1016.6627175 667.63302002c2.57894092 8.53034305 0.19838007 17.6558263-6.05059213 23.90479849L920.54757333 781.60237054c1.78542065-8.92710317 2.57894092-18.05258642 3.47165122-27.07887961-32.53433156 22.41694797-58.81969092 29.45944049-78.55850793 30.55053084 10.61333378-61.79539198-19.54043695-98.29732496-19.54043694-98.29732495s3.47165123 60.00997134-21.42504762 90.65969225c-171.99552118 187.66754674-276.74019841 114.06854057-276.74019842 114.06854056s4.66193165 32.83190168-84.50991004 65.66380335-107.91875838-82.72448941-107.91875838-82.72448941z" fill="#d81e06" p-id="1232"></path></svg>