<?xml version="1.0" standalone="no"?><!DOCTYPE svg PUBLIC "-//W3C//DTD SVG 1.1//EN" "http://www.w3.org/Graphics/SVG/1.1/DTD/svg11.dtd"><svg t="1635600429297" class="icon" viewBox="0 0 1024 1024" version="1.1" xmlns="http://www.w3.org/2000/svg" p-id="1363" xmlns:xlink="http://www.w3.org/1999/xlink" width="128" height="128"><defs><style type="text/css"></style></defs><path d="M351.75180519 840.74761322c-216.91353746-174.44850648-285.91921278-487.44817335-295.90569252-510.2101497-9.98647974-22.76197636 1.43949257-182.27574734 108.95159429-232.74795578 107.42213345-50.56217672 160.8632953 14.21498918 165.72158273 63.69754645 35.44750466 75.21348708-60.90852959 137.56150922-93.56701739 144.66900384S219.94826625 345.83207215 219.94826625 345.83207215c109.94124546 63.87748303 195.68102196 157.71440529 233.10782894 202.5186117-0.08996829 0.08996829-21.32248376 95.45635141 9.89651145 138.37122379 0 0-9.26673346-18.44349862 10.61625774-112.64029402 28.2500418-133.33299979 185.8744788-137.47154096 185.8744788-137.47154095-7.10749458-49.57252555 68.28592903-88.07895197 68.28592904-88.07895197l2.06927056 0.62977801c-4.4984143-5.57803372-7.28743117-8.90686031-7.28743116-8.90686031l90.68803225-90.68803223c11.60590889-11.60590889 31.30896353-6.65765318 36.16725099 8.99682858L969.74396146 653.16373698c2.33917544 7.7372726 0.17993658 16.01435493-5.48806543 21.68235691L882.56469236 756.53729754c1.61942916-8.09714573 2.33917544-16.37422804 3.14889-24.56134205-29.50959779 20.33283262-53.35119359 26.72058095-71.25488247 27.71023206 9.6266066-56.05024215-17.72375233-89.1585714-17.72375233-89.15857139s3.14889001 54.430813-19.43314977 82.23101338c-156.00500788 170.21999704-251.01151784 103.46352886-251.01151784 103.46352885s4.22850943 29.77950266-76.65297963 59.55900531-97.88549513-75.03355049-97.88549513-75.03355048z" fill="#d81e06" p-id="1364"></path></svg>