<?xml version="1.0" standalone="no"?><!DOCTYPE svg PUBLIC "-//W3C//DTD SVG 1.1//EN" "http://www.w3.org/Graphics/SVG/1.1/DTD/svg11.dtd"><svg t="1633342762475" class="icon" viewBox="0 0 1024 1024" version="1.1" xmlns="http://www.w3.org/2000/svg" p-id="1329" xmlns:xlink="http://www.w3.org/1999/xlink" width="128" height="128"><defs><style type="text/css"></style></defs><path d="M512.11025 1006.802c-66.8115 0-131.52825-13.11974999-192.60675-38.91825C260.63 943.0775 207.71 907.3565 162.287 861.9335c-45.42300001-45.42300001-81.14400001-98.343-106.0605-157.21650001-25.7985-60.96825-38.91824999-125.79525001-38.91825-192.60674999s13.11974999-131.52825 38.91825-192.60675c24.9165-58.8735 60.6375-111.7935 106.0605-157.2165s98.343-81.14400001 157.2165-106.0605c60.96825-25.7985 125.79525001-38.91824999 192.60675-38.91825s131.52825 13.11974999 192.60674999 38.91825c58.8735 24.9165 111.7935 60.6375 157.21650001 106.0605S943.0775 260.63 967.994 319.5035c25.7985 60.96825 38.91824999 125.79525001 38.91825001 192.60675S993.7925 643.6385 967.994 704.71699999c-24.9165 58.8735-60.6375 111.7935-106.0605 157.21650001s-98.343 81.14400001-157.21650001 106.0605c-61.0785 25.7985-125.79525001 38.808-192.60674999 38.808z m0-936.684c-243.6525 0-441.99225 198.33975-441.99225 441.99225S268.45775 954.1025 512.11025 954.1025 954.1025 755.76275 954.1025 512.11025 755.87300001 70.118 512.11025 70.118z" fill="#9400D3" p-id="1330"></path><path d="M441.32975001 507.92075H232.29575L250.7075 346.184h173.75400001v-80.48249999H234.39049999v-43.76925001h240.78600001V390.72500001h-178.605l-9.9225 74.19824999H492.155c0 146.853-3.969 244.86525001-12.01725 293.81625-9.37125 50.82524999-45.6435 77.72625-108.81675001 80.48250001-12.67875001 0-33.18525-0.99225-61.40924999-2.86650001l-12.01725001-44.541c28.224 1.87425 49.39200001 2.8665 63.61425001 2.8665 40.46175001 0 64.27575001-18.08099999 71.33174999-54.35325 2.8665-19.73475 4.96125-50.60475 6.39450001-92.49975-56.99925 41.89499999-127.11825 81.25425-210.46725 117.96750001l-20.5065-46.63575c89.41275-33.84675 166.91849999-74.85975 232.407-122.92875001l0.66150001-88.31025z m-194.92200001 43.10775c40.02075 8.04825 80.0415 20.9475 120.06225 38.808L349.49149999 634.3775c-39.13875-16.9785-80.703-30.6495-125.0235-41.013l21.93975001-42.336z m510.678-43.10775H543.752l19.07324999-161.73675h177.94350001v-80.48249999h-190.7325v-43.76925001h241.55775001V390.72500001H608.02775001l-10.58400001 74.19824999h210.46724999c0 145.53-3.74850001 243.432-11.35574998 293.81625-8.48925 50.82524999-42.66675 77.72625-102.42225001 80.48250001-23.59350001 0-47.29725-0.6615-71.33175-2.09475001L610.1225 790.38125c26.79075 2.31525 51.26625 3.528 73.4265 3.528 37.15425 0 59.094-17.8605 65.709-53.69175 2.31525-15.98625 4.18949999-47.07675 5.62275001-93.2715-58.8735 42.88724999-128.5515 81.69525-209.03400001 116.53425l-20.5065-46.63575c89.41275-34.398 166.47750001-74.85975 230.97374999-121.4955l0.77175001-87.42825zM564.92 548.162c40.02075 8.48925 79.38 21.168 117.96749999 38.1465l-18.41174999 44.54100001c-39.13875-16.9785-79.60049999-30.31875-121.49550001-40.24125002l21.93975001-42.44624999z" fill="#9400D3" p-id="1331"></path></svg>