<?xml version="1.0" standalone="no"?><!DOCTYPE svg PUBLIC "-//W3C//DTD SVG 1.1//EN" "http://www.w3.org/Graphics/SVG/1.1/DTD/svg11.dtd"><svg t="1635600468245" class="icon" viewBox="0 0 1024 1024" version="1.1" xmlns="http://www.w3.org/2000/svg" p-id="1363" xmlns:xlink="http://www.w3.org/1999/xlink" width="128" height="128"><defs><style type="text/css"></style></defs><path d="M512.10000001 960.8c-60.6 0-119.3-11.9-174.70000001-35.3C284 903 236 870.6 194.8 829.4c-41.20000001-41.20000001-73.60000001-89.2-96.2-142.60000001-23.4-55.29999999-35.3-114.1-35.3-174.69999999s11.9-119.3 35.3-174.7c22.6-53.4 55-101.4 96.2-142.6s89.2-73.60000001 142.6-96.2c55.29999999-23.4 114.1-35.3 174.7-35.3s119.3 11.9 174.69999999 35.3c53.4 22.6 101.4 55 142.60000001 96.2S903 284 925.6 337.4c23.4 55.29999999 35.3 114.1 35.3 174.70000001S949 631.4 925.6 686.79999999c-22.6 53.4-55 101.4-96.2 142.60000001s-89.2 73.60000001-142.60000001 96.2c-55.4 23.4-114.1 35.2-174.69999998 35.2z m0-849.6c-221 0-400.89999999 179.9-400.90000001 400.90000001S291.1 913 512.10000001 913 913 733.10000001 913 512.10000001 733.20000001 111.2 512.10000001 111.2z" fill="#9400D3" p-id="1364"></path><path d="M447.9 508.3H258.3L275 361.6h157.60000001v-72.99999999H260.19999999v-39.70000001h218.40000001V402.00000001h-162l-9 67.29999998H494c0 133.2-3.6 222.10000001-10.9 266.50000001-8.49999999 46.1-41.4 70.5-98.70000001 73.00000001-11.5 0-30.10000001-0.89999999-55.69999999-2.60000001l-10.90000001-40.4c25.6 1.69999999 44.80000001 2.6 57.70000002 2.6 36.70000001 0 58.3-16.39999999 64.69999998-49.29999999 2.6-17.89999999 4.5-45.90000001 5.80000001-83.90000002-51.70000001 37.99999999-115.30000001 73.70000001-190.89999999 107.00000002l-18.60000001-42.3c81.10000001-30.7 151.39999999-67.9 210.80000001-111.50000001l0.59999999-80.1z m-176.79999999 39.1c36.3 7.29999999 72.6 19 108.89999999 35.2L364.59999999 623c-35.50000001-15.4-73.2-27.8-113.4-37.2l19.90000001-38.4z m463.2-39.1H540.8l17.3-146.7h161.4v-72.99999999h-173v-39.7h219.10000001V402.00000001H599.1l-9.60000001 67.29999998h190.9c0 132-3.40000001 220.8-10.29999999 266.50000001-7.70000001 46.1-38.70000001 70.5-92.9 73.00000001-21.40000001 0-42.90000001-0.6-64.69999999-1.90000001L601 764.5c24.29999999 2.09999999 46.49999999 3.2 66.6 3.19999999 33.69999999 0 53.6-16.2 59.6-48.69999999 2.09999999-14.49999999 3.8-42.70000001 5.1-84.6-53.4 38.9-116.6 74.10000001-189.6 105.69999999l-18.59999999-42.29999999c81.10000001-31.2 151.00000001-67.9 209.49999998-110.2l0.70000001-79.3zM560 544.8c36.3 7.70000001 72.00000001 19.2 106.99999999 34.6l-16.69999999 40.40000001c-35.50000001-15.4-72.19999999-27.5-110.2-36.50000002l19.9-38.49999999z" fill="#9400D3" p-id="1365"></path></svg>